<svg width="346" height="346" viewBox="0 0 346 346" fill="none" xmlns="http://www.w3.org/2000/svg">
<g clip-path="url(#clip0_25_8)">
<path d="M346 174.06C346 77.9149 268.539 -0.0216064 173 -0.0216064C77.4175 1.85557e-05 -0.0432129 77.9149 -0.0432129 174.081C-0.0432129 260.949 63.2315 332.96 145.926 346.022V224.381H102.027V174.081H145.969V135.697C145.969 92.0793 171.811 67.989 211.32 67.989C230.263 67.989 250.05 71.3841 250.05 71.3841V114.202H228.23C206.757 114.202 200.053 127.631 200.053 141.406V174.06H248.017L240.362 224.359H200.031V346C282.725 332.939 346 260.927 346 174.06Z" fill="white"/>
</g>
<defs>
<clipPath id="clip0_25_8">
<rect width="346" height="346" fill="white"/>
</clipPath>
</defs>
</svg>
