<svg width="346" height="346" viewBox="0 0 346 346" fill="none" xmlns="http://www.w3.org/2000/svg">
<path d="M173 0C77.4175 0 0 77.4175 0 173C0 249.552 49.5212 314.211 118.289 337.134C126.939 338.648 130.182 333.458 130.182 328.916C130.182 324.808 129.966 311.184 129.966 296.695C86.5 304.696 75.255 286.099 71.795 276.367C69.8487 271.394 61.415 256.04 54.0625 251.931C48.0075 248.687 39.3575 240.686 53.8463 240.47C67.47 240.254 77.2013 253.012 80.445 258.202C96.015 284.369 120.884 277.016 130.831 272.475C132.345 261.23 136.886 253.661 141.86 249.336C103.367 245.011 63.145 230.09 63.145 163.917C63.145 145.104 69.8488 129.534 80.8775 117.424C79.1475 113.099 73.0925 95.3662 82.6075 71.5787C82.6075 71.5787 97.0963 67.0375 130.182 89.3113C144.022 85.4188 158.728 83.4725 173.433 83.4725C188.138 83.4725 202.843 85.4188 216.683 89.3113C249.769 66.8213 264.258 71.5787 264.258 71.5787C273.773 95.3662 267.718 113.099 265.988 117.424C277.016 129.534 283.72 144.887 283.72 163.917C283.72 230.306 243.281 245.011 204.789 249.336C211.06 254.742 216.466 265.123 216.466 281.341C216.466 304.48 216.25 323.078 216.25 328.916C216.25 333.458 219.494 338.864 228.144 337.134C262.489 325.543 292.334 303.471 313.477 274.027C334.619 244.583 345.994 209.249 346 173C346 77.4175 268.583 0 173 0Z" fill="white"/>
</svg>
