<svg width="346" height="346" viewBox="0 0 346 346" fill="none" xmlns="http://www.w3.org/2000/svg">
<path d="M173 0C126.052 0 120.149 0.21625 101.702 1.038C83.2563 1.903 70.6921 4.80075 59.685 9.0825C48.1393 13.4252 37.6814 20.2372 29.0424 29.0424C20.2426 37.6858 13.4314 48.1424 9.0825 59.685C4.80075 70.6705 1.88138 83.2562 1.038 101.637C0.21625 120.127 0 126.009 0 173.022C0 219.991 0.21625 225.873 1.038 244.319C1.903 262.744 4.80075 275.308 9.0825 286.315C13.5156 297.69 19.4193 307.334 29.0424 316.958C38.6439 326.581 48.2886 332.506 59.6634 336.917C70.6921 341.199 83.2346 344.119 101.659 344.962C120.127 345.784 126.009 346 173 346C219.991 346 225.852 345.784 244.319 344.962C262.722 344.097 275.33 341.199 286.337 336.917C297.875 332.573 308.325 325.761 316.958 316.958C326.581 307.334 332.484 297.69 336.917 286.315C341.178 275.308 344.097 262.744 344.962 244.319C345.784 225.873 346 219.991 346 173C346 126.009 345.784 120.127 344.962 101.659C344.097 83.2563 341.178 70.6705 336.917 59.685C332.569 48.1421 325.758 37.6854 316.958 29.0424C308.321 20.234 297.863 13.4215 286.315 9.0825C275.286 4.80075 262.7 1.88138 244.298 1.038C225.83 0.21625 219.97 0 172.957 0H173.022H173ZM157.495 31.1833H173.022C219.213 31.1833 224.684 31.3346 242.914 32.178C259.781 32.9349 268.95 35.7678 275.048 38.1249C283.114 41.2605 288.888 45.0232 294.943 51.0782C300.998 57.1332 304.74 62.8855 307.875 70.9733C310.254 77.0499 313.065 86.2189 313.822 103.086C314.665 121.316 314.838 126.787 314.838 172.957C314.838 219.126 314.665 224.619 313.822 242.849C313.065 259.716 310.232 268.864 307.875 274.962C305.102 282.474 300.675 289.265 294.922 294.835C288.867 300.89 283.115 304.631 275.027 307.767C268.972 310.146 259.803 312.957 242.914 313.736C224.684 314.557 219.213 314.752 173.022 314.752C126.831 314.752 121.338 314.557 103.108 313.736C86.2405 312.957 77.0931 310.146 70.9949 307.767C63.4802 304.997 56.6818 300.578 51.0999 294.835C45.3422 289.257 40.9085 282.458 38.1249 274.94C35.7678 268.864 32.9349 259.695 32.178 242.827C31.3563 224.597 31.1833 219.126 31.1833 172.913C31.1833 126.722 31.3563 121.273 32.178 103.043C32.9565 86.1756 35.7678 77.0066 38.1465 70.9084C41.2821 62.8423 45.0449 57.0684 51.0999 51.0134C57.1549 44.9584 62.9071 41.2173 70.9949 38.0816C77.0931 35.7029 86.2405 32.8916 103.108 32.1131C119.067 31.3779 125.252 31.1616 157.495 31.14V31.1833V31.1833ZM265.36 59.9012C262.634 59.9012 259.935 60.4382 257.416 61.4815C254.897 62.5248 252.609 64.054 250.681 65.9817C248.753 67.9095 247.224 70.198 246.181 72.7167C245.137 75.2355 244.6 77.935 244.6 80.6613C244.6 83.3875 245.137 86.087 246.181 88.6058C247.224 91.1245 248.753 93.413 250.681 95.3408C252.609 97.2685 254.897 98.7977 257.416 99.841C259.935 100.884 262.634 101.421 265.36 101.421C270.866 101.421 276.147 99.234 280.04 95.3408C283.933 91.4475 286.12 86.1671 286.12 80.6613C286.12 75.1554 283.933 69.875 280.04 65.9817C276.147 62.0885 270.866 59.9012 265.36 59.9012V59.9012ZM173.022 84.1645C161.238 83.9806 149.535 86.1429 138.594 90.5253C127.654 94.9077 117.694 101.423 109.296 109.691C100.898 117.96 94.228 127.816 89.6754 138.687C85.1229 149.557 82.7783 161.225 82.7783 173.011C82.7783 184.796 85.1229 196.464 89.6754 207.335C94.228 218.206 100.898 228.062 109.296 236.33C117.694 244.599 127.654 251.114 138.594 255.496C149.535 259.879 161.238 262.041 173.022 261.857C196.345 261.493 218.59 251.973 234.955 235.35C251.32 218.728 260.493 196.337 260.493 173.011C260.493 149.685 251.32 127.294 234.955 110.671C218.59 94.049 196.345 84.5284 173.022 84.1645V84.1645ZM173.022 115.326C188.318 115.326 202.987 121.402 213.803 132.218C224.619 143.034 230.696 157.704 230.696 173C230.696 188.296 224.619 202.966 213.803 213.782C202.987 224.598 188.318 230.674 173.022 230.674C157.726 230.674 143.056 224.598 132.24 213.782C121.424 202.966 115.348 188.296 115.348 173C115.348 157.704 121.424 143.034 132.24 132.218C143.056 121.402 157.726 115.326 173.022 115.326V115.326Z" fill="white"/>
</svg>
