<svg width="346" height="346" viewBox="0 0 346 346" fill="none" xmlns="http://www.w3.org/2000/svg">
<path d="M108.687 324.375C239.259 324.375 310.686 216.185 310.686 122.527C310.686 119.5 310.686 116.429 310.557 113.401C324.463 103.335 336.465 90.8715 346 76.5957C333.01 82.3231 319.245 86.0979 305.15 87.7975C319.997 78.9234 331.116 64.9608 336.442 48.5048C322.493 56.7683 307.227 62.5692 291.31 65.6535C280.61 54.2576 266.45 46.7082 251.025 44.1746C235.599 41.641 219.769 44.2647 205.985 51.6391C192.202 59.0136 181.235 70.7273 174.783 84.9659C168.331 99.2045 166.754 115.173 170.297 130.399C142.071 128.983 114.457 121.651 89.2473 108.876C64.0375 96.1019 41.7943 78.171 23.9605 56.2466C14.907 71.8833 12.144 90.3795 16.2327 107.979C20.3214 125.579 30.9552 140.963 45.9747 151.007C34.7198 150.625 23.7123 147.603 13.84 142.184V143.157C13.8594 159.538 19.534 175.409 29.9046 188.089C40.2753 200.769 54.7058 209.479 70.757 212.747C64.6644 214.425 58.3708 215.262 52.0514 215.234C47.5963 215.247 43.1501 214.834 38.7736 214.001C43.3103 228.102 52.1438 240.43 64.037 249.26C75.9301 258.09 90.2873 262.978 105.098 263.241C79.938 283.002 48.8596 293.72 16.8675 293.667C11.2303 293.691 5.59705 293.366 0 292.694C32.4703 313.395 70.1796 324.387 108.687 324.375V324.375Z" fill="white"/>
</svg>
